<svg width="651" height="108" viewBox="0 0 651 108" fill="none" xmlns="http://www.w3.org/2000/svg">
<path d="M65 86.0439H0V21.0439H65V86.0439Z" fill="#E30004"/>
<rect x="72" y="21.0439" width="65" height="65" rx="24" fill="#011EF4"/>
<path d="M176 86.0879C158.277 85.7933 144 71.3376 144 53.5439C144 35.7503 158.277 21.2946 176 21V86.0879Z" fill="#F98715"/>
<path d="M203.582 20.5894V86.0439H187.954V20.5894H203.582ZM231.945 86.9708C226.789 86.9708 222.357 85.9161 218.65 83.8067C214.964 81.676 212.119 78.7144 210.117 74.9218C208.135 71.1079 207.144 66.6867 207.144 61.6583C207.144 56.6086 208.135 52.1874 210.117 48.3948C212.119 44.5809 214.964 41.6192 218.65 39.5099C222.357 37.3792 226.789 36.3138 231.945 36.3138C237.102 36.3138 241.523 37.3792 245.209 39.5099C248.916 41.6192 251.761 44.5809 253.742 48.3948C255.745 52.1874 256.747 56.6086 256.747 61.6583C256.747 66.6867 255.745 71.1079 253.742 74.9218C251.761 78.7144 248.916 81.676 245.209 83.8067C241.523 85.9161 237.102 86.9708 231.945 86.9708ZM232.041 75.1775C233.916 75.1775 235.504 74.6022 236.803 73.4516C238.103 72.301 239.094 70.703 239.776 68.6576C240.479 66.6121 240.83 64.2471 240.83 61.5624C240.83 58.8351 240.479 56.4488 239.776 54.4033C239.094 52.3579 238.103 50.7599 236.803 49.6093C235.504 48.4587 233.916 47.8834 232.041 47.8834C230.102 47.8834 228.462 48.4587 227.119 49.6093C225.798 50.7599 224.786 52.3579 224.083 54.4033C223.401 56.4488 223.061 58.8351 223.061 61.5624C223.061 64.2471 223.401 66.6121 224.083 68.6576C224.786 70.703 225.798 72.301 227.119 73.4516C228.462 74.6022 230.102 75.1775 232.041 75.1775ZM283.136 105.476C278.47 105.476 274.475 104.826 271.151 103.526C267.827 102.226 265.217 100.447 263.321 98.1888C261.425 95.9303 260.285 93.3735 259.901 90.5184L274.699 89.6874C274.976 90.6888 275.487 91.5624 276.233 92.3081C277 93.0539 277.991 93.6292 279.205 94.034C280.441 94.4388 281.89 94.6412 283.552 94.6412C286.172 94.6412 288.335 94.002 290.04 92.7236C291.765 91.4665 292.628 89.2613 292.628 86.1079V77.4786H292.085C291.467 78.9914 290.53 80.3444 289.273 81.5376C288.015 82.7307 286.449 83.6682 284.574 84.3501C282.721 85.0319 280.59 85.3728 278.182 85.3728C274.603 85.3728 271.322 84.5418 268.339 82.8799C265.377 81.1966 263.001 78.5972 261.211 75.0816C259.443 71.5447 258.559 66.9956 258.559 61.4346C258.559 55.703 259.475 50.9836 261.307 47.2762C263.14 43.5475 265.537 40.7883 268.498 38.9985C271.481 37.2087 274.688 36.3138 278.118 36.3138C280.697 36.3138 282.902 36.7613 284.734 37.6562C286.588 38.5297 288.111 39.659 289.305 41.0439C290.498 42.4289 291.403 43.8671 292.021 45.3586H292.469V36.953H308.033V86.2357C308.033 90.3905 306.989 93.8955 304.901 96.7506C302.813 99.6057 299.894 101.768 296.144 103.239C292.394 104.73 288.058 105.476 283.136 105.476ZM283.616 73.9949C285.512 73.9949 287.131 73.4942 288.474 72.4928C289.816 71.4914 290.849 70.0532 291.574 68.1782C292.298 66.3032 292.66 64.0553 292.66 61.4346C292.66 58.7712 292.298 56.4807 291.574 54.5631C290.871 52.6242 289.837 51.1327 288.474 50.0887C287.131 49.0447 285.512 48.5226 283.616 48.5226C281.677 48.5226 280.036 49.0553 278.694 50.1206C277.351 51.186 276.329 52.6881 275.626 54.627C274.944 56.5447 274.603 58.8138 274.603 61.4346C274.603 64.0553 274.954 66.3032 275.657 68.1782C276.361 70.0532 277.373 71.4914 278.694 72.4928C280.036 73.4942 281.677 73.9949 283.616 73.9949ZM336.412 86.9708C331.256 86.9708 326.824 85.9161 323.117 83.8067C319.431 81.676 316.586 78.7144 314.583 74.9218C312.602 71.1079 311.611 66.6867 311.611 61.6583C311.611 56.6086 312.602 52.1874 314.583 48.3948C316.586 44.5809 319.431 41.6192 323.117 39.5099C326.824 37.3792 331.256 36.3138 336.412 36.3138C341.569 36.3138 345.99 37.3792 349.676 39.5099C353.383 41.6192 356.228 44.5809 358.209 48.3948C360.212 52.1874 361.213 56.6086 361.213 61.6583C361.213 66.6867 360.212 71.1079 358.209 74.9218C356.228 78.7144 353.383 81.676 349.676 83.8067C345.99 85.9161 341.569 86.9708 336.412 86.9708ZM336.508 75.1775C338.383 75.1775 339.971 74.6022 341.27 73.4516C342.57 72.301 343.561 70.703 344.243 68.6576C344.946 66.6121 345.297 64.2471 345.297 61.5624C345.297 58.8351 344.946 56.4488 344.243 54.4033C343.561 52.3579 342.57 50.7599 341.27 49.6093C339.971 48.4587 338.383 47.8834 336.508 47.8834C334.569 47.8834 332.929 48.4587 331.586 49.6093C330.265 50.7599 329.253 52.3579 328.55 54.4033C327.868 56.4488 327.527 58.8351 327.527 61.5624C327.527 64.2471 327.868 66.6121 328.55 68.6576C329.253 70.703 330.265 72.301 331.586 73.4516C332.929 74.6022 334.569 75.1775 336.508 75.1775ZM407.578 51.9424L393.228 52.3259C393.079 51.3032 392.674 50.3976 392.013 49.6093C391.353 48.7996 390.49 48.1711 389.425 47.7236C388.381 47.2549 387.166 47.0205 385.781 47.0205C383.97 47.0205 382.425 47.3827 381.147 48.1072C379.89 48.8316 379.272 49.8117 379.293 51.0475C379.272 52.0063 379.656 52.8373 380.444 53.5404C381.254 54.2435 382.692 54.8081 384.759 55.2343L394.219 57.0241C399.119 57.9616 402.763 59.517 405.149 61.6903C407.557 63.8635 408.771 66.74 408.793 70.3195C408.771 73.686 407.77 76.6157 405.788 79.1086C403.828 81.6015 401.143 83.5404 397.734 84.9253C394.325 86.289 390.426 86.9708 386.037 86.9708C379.027 86.9708 373.498 85.5326 369.45 82.6562C365.423 79.7584 363.121 75.8806 362.546 71.0226L377.983 70.6391C378.324 72.4289 379.208 73.7925 380.636 74.73C382.063 75.6675 383.885 76.1363 386.101 76.1363C388.104 76.1363 389.734 75.7634 390.991 75.0177C392.248 74.2719 392.887 73.2812 392.908 72.0454C392.887 70.9374 392.397 70.0532 391.438 69.3927C390.479 68.7108 388.977 68.1782 386.932 67.7947L378.366 66.1647C373.445 65.2698 369.78 63.6185 367.372 61.2108C364.964 58.7819 363.771 55.6924 363.793 51.9424C363.771 48.6611 364.645 45.8593 366.413 43.5368C368.182 41.1931 370.696 39.4033 373.956 38.1675C377.216 36.9317 381.062 36.3138 385.494 36.3138C392.141 36.3138 397.383 37.7094 401.218 40.5006C405.053 43.2705 407.173 47.0844 407.578 51.9424ZM439.697 36.953V48.4587H408.727V36.953H439.697ZM415.215 25.1917H430.844V70.6072C430.844 71.566 430.993 72.3437 431.291 72.9403C431.611 73.5155 432.069 73.931 432.665 74.1867C433.262 74.4211 433.976 74.5383 434.807 74.5383C435.403 74.5383 436.032 74.485 436.692 74.3785C437.374 74.2506 437.885 74.1441 438.226 74.0589L440.591 85.3408C439.846 85.5539 438.791 85.8202 437.427 86.1398C436.085 86.4594 434.476 86.6618 432.601 86.7471C428.937 86.9175 425.794 86.4914 423.173 85.4687C420.574 84.4246 418.581 82.8053 417.197 80.6107C415.833 78.4161 415.172 75.6569 415.215 72.333V25.1917ZM443.171 86.0439V36.953H458.352V45.9019H458.863C459.758 42.6633 461.218 40.2556 463.242 38.6789C465.266 37.0809 467.62 36.2819 470.305 36.2819C471.029 36.2819 471.775 36.3351 472.542 36.4417C473.309 36.5269 474.023 36.6654 474.683 36.8572V50.4403C473.938 50.1846 472.958 49.9822 471.743 49.833C470.55 49.6839 469.485 49.6093 468.547 49.6093C466.693 49.6093 465.021 50.0248 463.529 50.8557C462.059 51.6654 460.898 52.8053 460.046 54.2755C459.215 55.7243 458.799 57.4289 458.799 59.3891V86.0439H443.171ZM496.95 86.9708C491.815 86.9708 487.383 85.9587 483.655 83.9346C479.947 81.8891 477.092 78.9807 475.089 75.2094C473.108 71.4168 472.117 66.9104 472.117 61.6903C472.117 56.6192 473.118 52.1874 475.121 48.3948C477.124 44.5809 479.947 41.6192 483.591 39.5099C487.234 37.3792 491.528 36.3138 496.471 36.3138C499.965 36.3138 503.161 36.8572 506.059 37.9438C508.956 39.0304 511.46 40.6391 513.569 42.7698C515.679 44.9005 517.319 47.5319 518.491 50.664C519.663 53.7748 520.249 57.3437 520.249 61.3706V65.2698H477.582V56.1931H505.707C505.686 54.5312 505.292 53.0503 504.525 51.7506C503.758 50.4509 502.703 49.4388 501.361 48.7144C500.04 47.9687 498.516 47.5958 496.79 47.5958C495.043 47.5958 493.477 47.99 492.092 48.7783C490.707 49.5454 489.61 50.6001 488.8 51.9424C487.991 53.2634 487.564 54.7655 487.522 56.4488V65.6853C487.522 67.6881 487.916 69.4459 488.704 70.9587C489.493 72.4502 490.611 73.6114 492.06 74.4424C493.509 75.2733 495.235 75.6888 497.238 75.6888C498.623 75.6888 499.88 75.4971 501.009 75.1135C502.138 74.73 503.108 74.1654 503.917 73.4197C504.727 72.6739 505.334 71.7577 505.739 70.6711L520.089 71.0866C519.493 74.3039 518.182 77.1057 516.158 79.4921C514.155 81.8572 511.524 83.7002 508.264 85.0212C505.004 86.3209 501.233 86.9708 496.95 86.9708ZM537.57 86.8749C534.438 86.8749 531.657 86.3529 529.228 85.3089C526.821 84.2435 524.914 82.6455 523.507 80.5148C522.123 78.3628 521.43 75.6675 521.43 72.4289C521.43 69.7016 521.909 67.4005 522.868 65.5255C523.827 63.6505 525.148 62.127 526.831 60.9552C528.515 59.7833 530.453 58.8991 532.648 58.3025C534.843 57.6846 537.186 57.2691 539.679 57.056C542.471 56.8003 544.718 56.534 546.423 56.257C548.127 55.9587 549.363 55.5432 550.13 55.0106C550.919 54.4566 551.313 53.6789 551.313 52.6775V52.5177C551.313 50.877 550.748 49.6093 549.619 48.7144C548.49 47.8195 546.966 47.3721 545.049 47.3721C542.982 47.3721 541.32 47.8195 540.063 48.7144C538.806 49.6093 538.007 50.8451 537.666 52.4218L523.252 51.9104C523.678 48.9275 524.775 46.2641 526.544 43.9204C528.333 41.5553 530.784 39.7016 533.895 38.3593C537.027 36.9956 540.787 36.3138 545.176 36.3138C548.309 36.3138 551.196 36.6867 553.838 37.4324C556.48 38.1569 558.781 39.2222 560.741 40.6285C562.701 42.0134 564.214 43.718 565.279 45.7421C566.366 47.7662 566.909 50.078 566.909 52.6775V86.0439H552.208V79.2045H551.824C550.951 80.8664 549.832 82.2726 548.468 83.4232C547.126 84.5738 545.539 85.4367 543.706 86.012C541.895 86.5873 539.85 86.8749 537.57 86.8749ZM542.396 76.6476C544.079 76.6476 545.592 76.3067 546.934 75.6249C548.298 74.9431 549.385 74.0056 550.194 72.8124C551.004 71.5979 551.409 70.1917 551.409 68.5937V63.9275C550.961 64.1618 550.418 64.3749 549.779 64.5667C549.161 64.7584 548.479 64.9395 547.733 65.11C546.988 65.2805 546.221 65.4296 545.432 65.5574C544.644 65.6853 543.887 65.8025 543.163 65.909C541.693 66.1434 540.436 66.5056 539.392 66.9956C538.369 67.4857 537.581 68.1249 537.027 68.9133C536.494 69.6803 536.228 70.5965 536.228 71.6618C536.228 73.2812 536.803 74.517 537.953 75.3692C539.125 76.2215 540.606 76.6476 542.396 76.6476ZM571.966 86.0439V36.953H586.827V45.9658H587.37C588.393 42.9829 590.119 40.6285 592.548 38.9026C594.977 37.1768 597.875 36.3138 601.241 36.3138C604.65 36.3138 607.569 37.1874 609.998 38.9346C612.427 40.6817 613.972 43.0255 614.632 45.9658H615.144C616.06 43.0468 617.85 40.7137 620.513 38.9665C623.176 37.1981 626.319 36.3138 629.941 36.3138C634.586 36.3138 638.358 37.8053 641.255 40.7883C644.153 43.7499 645.602 47.8195 645.602 52.9971V86.0439H629.973V56.5766C629.973 54.1263 629.345 52.262 628.088 50.9836C626.831 49.6839 625.201 49.034 623.198 49.034C621.046 49.034 619.352 49.7371 618.116 51.1434C616.902 52.5283 616.294 54.3927 616.294 56.7364V86.0439H601.273V56.4168C601.273 54.137 600.655 52.3366 599.419 51.0155C598.184 49.6945 596.554 49.034 594.529 49.034C593.166 49.034 591.962 49.3643 590.918 50.0248C589.874 50.664 589.054 51.5802 588.457 52.7733C587.882 53.9665 587.594 55.3728 587.594 56.9921V86.0439H571.966Z" fill="black"/>
<path d="M538.52 107H531.448V87.8671H538.511C540.46 87.8671 542.139 88.2502 543.546 89.0162C544.96 89.7761 546.05 90.8722 546.816 92.3047C547.582 93.7309 547.965 95.4374 547.965 97.4242C547.965 99.4172 547.582 101.13 546.816 102.562C546.056 103.995 544.969 105.094 543.556 105.86C542.142 106.62 540.463 107 538.52 107ZM536.072 103.058H538.343C539.414 103.058 540.32 102.877 541.061 102.516C541.809 102.148 542.372 101.553 542.752 100.731C543.138 99.903 543.331 98.8006 543.331 97.4242C543.331 96.0478 543.138 94.9516 542.752 94.1358C542.366 93.3136 541.796 92.722 541.043 92.3607C540.295 91.9933 539.373 91.8095 538.277 91.8095H536.072V103.058ZM583.193 97.4336C583.193 99.5387 582.788 101.323 581.978 102.787C581.169 104.25 580.072 105.362 578.69 106.122C577.313 106.882 575.769 107.262 574.056 107.262C572.337 107.262 570.789 106.879 569.413 106.112C568.037 105.346 566.944 104.235 566.134 102.777C565.33 101.314 564.929 99.5325 564.929 97.4336C564.929 95.3285 565.33 93.5441 566.134 92.0805C566.944 90.6169 568.037 89.5051 569.413 88.7453C570.789 87.9855 572.337 87.6055 574.056 87.6055C575.769 87.6055 577.313 87.9855 578.69 88.7453C580.072 89.5051 581.169 90.6169 581.978 92.0805C582.788 93.5441 583.193 95.3285 583.193 97.4336ZM578.466 97.4336C578.466 96.1879 578.288 95.1354 577.933 94.2759C577.584 93.4164 577.08 92.7656 576.42 92.3234C575.766 91.8812 574.978 91.6601 574.056 91.6601C573.141 91.6601 572.353 91.8812 571.692 92.3234C571.032 92.7656 570.525 93.4164 570.17 94.2759C569.821 95.1354 569.647 96.1879 569.647 97.4336C569.647 98.6792 569.821 99.7318 570.17 100.591C570.525 101.451 571.032 102.102 571.692 102.544C572.353 102.986 573.141 103.207 574.056 103.207C574.978 103.207 575.766 102.986 576.42 102.544C577.08 102.102 577.584 101.451 577.933 100.591C578.288 99.7318 578.466 98.6792 578.466 97.4336ZM617.729 94.7991H613.058C612.996 94.3195 612.868 93.8866 612.675 93.5005C612.482 93.1143 612.226 92.7843 611.909 92.5102C611.591 92.2362 611.214 92.0275 610.778 91.8843C610.349 91.7348 609.872 91.6601 609.349 91.6601C608.421 91.6601 607.621 91.8874 606.948 92.3421C606.282 92.7967 605.768 93.4538 605.407 94.3133C605.052 95.1727 604.874 96.2128 604.874 97.4336C604.874 98.7041 605.055 99.7691 605.416 100.629C605.783 101.482 606.297 102.126 606.957 102.562C607.624 102.992 608.412 103.207 609.321 103.207C609.832 103.207 610.296 103.142 610.713 103.011C611.137 102.88 611.507 102.69 611.825 102.441C612.149 102.186 612.413 101.877 612.619 101.516C612.831 101.149 612.977 100.734 613.058 100.274L617.729 100.302C617.648 101.149 617.402 101.983 616.991 102.805C616.586 103.627 616.029 104.378 615.319 105.057C614.609 105.729 613.743 106.265 612.722 106.664C611.706 107.062 610.542 107.262 609.228 107.262C607.496 107.262 605.945 106.882 604.575 106.122C603.211 105.356 602.134 104.241 601.343 102.777C600.552 101.314 600.156 99.5325 600.156 97.4336C600.156 95.3285 600.558 93.5441 601.361 92.0805C602.165 90.6169 603.252 89.5051 604.622 88.7453C605.992 87.9855 607.527 87.6055 609.228 87.6055C610.386 87.6055 611.457 87.7675 612.441 88.0913C613.425 88.409 614.291 88.8761 615.038 89.4927C615.786 90.103 616.393 90.8535 616.86 91.7442C617.327 92.6348 617.617 93.6531 617.729 94.7991ZM645.186 93.6033C645.124 92.9182 644.847 92.3857 644.355 92.0057C643.869 91.6196 643.175 91.4265 642.272 91.4265C641.674 91.4265 641.175 91.5044 640.777 91.6601C640.378 91.8158 640.079 92.0306 639.88 92.3047C639.681 92.5725 639.578 92.8808 639.572 93.2296C639.559 93.5161 639.615 93.7683 639.74 93.9863C639.871 94.2043 640.057 94.3973 640.3 94.5655C640.549 94.7274 640.848 94.8707 641.197 94.9952C641.546 95.1198 641.938 95.2288 642.374 95.3222L644.019 95.6959C644.965 95.9014 645.8 96.1755 646.522 96.518C647.251 96.8606 647.861 97.2685 648.353 97.7419C648.852 98.2152 649.228 98.7602 649.484 99.3767C649.739 99.9933 649.87 100.685 649.876 101.451C649.87 102.659 649.565 103.696 648.961 104.562C648.356 105.427 647.488 106.091 646.354 106.552C645.227 107.012 643.866 107.243 642.272 107.243C640.671 107.243 639.276 107.003 638.086 106.524C636.897 106.044 635.972 105.315 635.312 104.337C634.651 103.36 634.312 102.123 634.293 100.629H638.721C638.759 101.245 638.924 101.759 639.217 102.17C639.509 102.581 639.911 102.893 640.422 103.104C640.939 103.316 641.537 103.422 642.215 103.422C642.838 103.422 643.368 103.338 643.804 103.17C644.246 103.002 644.585 102.768 644.822 102.469C645.059 102.17 645.18 101.828 645.186 101.441C645.18 101.08 645.068 100.772 644.85 100.516C644.632 100.255 644.296 100.031 643.841 99.8439C643.393 99.6508 642.82 99.4733 642.122 99.3114L640.123 98.8442C638.466 98.4643 637.161 97.8509 636.208 97.0038C635.256 96.1506 634.782 94.9984 634.788 93.5472C634.782 92.3639 635.1 91.3269 635.741 90.4362C636.383 89.5456 637.27 88.8512 638.404 88.3529C639.537 87.8547 640.83 87.6055 642.281 87.6055C643.763 87.6055 645.049 87.8578 646.139 88.3623C647.235 88.8605 648.086 89.5612 648.69 90.4643C649.294 91.3674 649.602 92.4137 649.615 93.6033H645.186Z" fill="black"/>
</svg>
